{
  "accessors": [
    {
      "bufferView": 2,
      "componentType": 5126,
      "count": 595,
      "max": [
        3.504999876022339,
        5.350000381469727,
        3.7250001430511475
      ],
      "min": [
        -2.504999876022339,
        0.0,
        -3.7250001430511475
      ],
      "type": "VEC3"
    },
    {
      "bufferView": 2,
      "byteOffset": 7140,
      "componentType": 5126,
      "count": 595,
      "max": [
        1.0,
        1.0,
        1.0
      ],
      "min": [
        -1.0,
        -1.0,
        -1.0
      ],
      "type": "VEC3"
    },
    {
      "bufferView": 1,
      "componentType": 5126,
      "count": 595,
      "max": [
        7.747646331787109,
        2.9452364444732666
      ],
      "min": [
        -7.148197650909424,
        -6.447646141052246
      ],
      "type": "VEC2"
    },
    {
      "bufferView": 1,
      "byteOffset": 4760,
      "componentType": 5126,
      "count": 595,
      "max": [
        0.9930352568626404,
        0.9955481886863708
      ],
      "min": [
        0.005976200103759766,
        0.13473212718963623
      ],
      "type": "VEC2"
    },
    {
      "bufferView": 1,
      "byteOffset": 9520,
      "componentType": 5126,
      "count": 595,
      "max": [
        7.747646331787109,
        2.9452364444732666
      ],
      "min": [
        -7.148197650909424,
        -6.447646141052246
      ],
      "type": "VEC2"
    },
    {
      "bufferView": 0,
      "componentType": 5125,
      "count": 1407,
      "type": "SCALAR"
    },
    {
      "bufferView": 2,
      "byteOffset": 14280,
      "componentType": 5126,
      "count": 24,
      "max": [
        2.504999876022339,
        2.009999990463257,
        -0.5100001096725464
      ],
      "min": [
        2.4549999237060547,
        0.20000000298023224,
        -1.5100001096725464
      ],
      "type": "VEC3"
    },
    {
      "bufferView": 2,
      "byteOffset": 14568,
      "componentType": 5126,
      "count": 24,
      "max": [
        1.0,
        0.0,
        1.0
      ],
      "min": [
        0.0,
        -1.0,
        -1.0
      ],
      "type": "VEC3"
    },
    {
      "bufferView": 1,
      "byteOffset": 14280,
      "componentType": 5126,
      "count": 24,
      "max": [
        0.988667368888855,
        1.0
      ],
      "min": [
        0.0023145973682403564,
        1.1920928955078125e-07
      ],
      "type": "VEC2"
    },
    {
      "bufferView": 1,
      "byteOffset": 14472,
      "componentType": 5126,
      "count": 24,
      "max": [
        0.9683424234390259,
        0.752418577671051
      ],
      "min": [
        0.35944151878356934,
        0.170485258102417
      ],
      "type": "VEC2"
    },
    {
      "bufferView": 1,
      "byteOffset": 14664,
      "componentType": 5126,
      "count": 24,
      "max": [
        0.988667368888855,
        1.0
      ],
      "min": [
        0.0023145973682403564,
        1.1920928955078125e-07
      ],
      "type": "VEC2"
    },
    {
      "bufferView": 0,
      "byteOffset": 5628,
      "componentType": 5125,
      "count": 42,
      "type": "SCALAR"
    },
    {
      "bufferView": 2,
      "byteOffset": 14856,
      "componentType": 5126,
      "count": 4,
      "max": [
        2.4549999237060547,
        1.940000057220459,
        1.5475001335144043
      ],
      "min": [
        2.4549999237060547,
        0.20000000298023224,
        -0.35249996185302734
      ],
      "type": "VEC3"
    },
    {
      "bufferView": 2,
      "byteOffset": 14904,
      "componentType": 5126,
      "count": 4,
      "max": [
        1.0,
        0.0,
        -0.0
      ],
      "min": [
        1.0,
        0.0,
        -0.0
      ],
      "type": "VEC3"
    },
    {
      "bufferView": 1,
      "byteOffset": 14856,
      "componentType": 5126,
      "count": 4,
      "max": [
        0.9782119989395142,
        0.9722428917884827
      ],
      "min": [
        0.01668214425444603,
        0.012569963932037354
      ],
      "type": "VEC2"
    },
    {
      "bufferView": 1,
      "byteOffset": 14888,
      "componentType": 5126,
      "count": 4,
      "max": [
        0.11272072792053223,
        0.26642870903015137
      ],
      "min": [
        0.005976438522338867,
        0.2318401336669922
      ],
      "type": "VEC2"
    },
    {
      "bufferView": 1,
      "byteOffset": 14920,
      "componentType": 5126,
      "count": 4,
      "max": [
        0.9782119989395142,
        0.9722428917884827
      ],
      "min": [
        0.01668214425444603,
        0.012569963932037354
      ],
      "type": "VEC2"
    },
    {
      "bufferView": 0,
      "byteOffset": 5796,
      "componentType": 5125,
      "count": 6,
      "type": "SCALAR"
    },
    {
      "bufferView": 2,
      "byteOffset": 14952,
      "componentType": 5126,
      "count": 4,
      "max": [
        0.4541108012199402,
        5.090000152587891,
        -1.7967777252197266
      ],
      "min": [
        0.4541108012199402,
        3.3500001430511475,
        -2.6767821311950684
      ],
      "type": "VEC3"
    },
    {
      "bufferView": 2,
      "byteOffset": 15000,
      "componentType": 5126,
      "count": 4,
      "max": [
        1.0,
        0.0,
        -0.0
      ],
      "min": [
        1.0,
        0.0,
        -0.0
      ],
      "type": "VEC3"
    },
    {
      "bufferView": 1,
      "byteOffset": 14952,
      "componentType": 5126,
      "count": 4,
      "max": [
        0.8014084100723267,
        1.000400185585022
      ],
      "min": [
        0.12079079449176788,
        0.020772159099578857
      ],
      "type": "VEC2"
    },
    {
      "bufferView": 1,
      "byteOffset": 14984,
      "componentType": 5126,
      "count": 4,
      "max": [
        0.8042563199996948,
        0.6859185099601746
      ],
      "min": [
        0.7682473659515381,
        0.6384289860725403
      ],
      "type": "VEC2"
    },
    {
      "bufferView": 0,
      "byteOffset": 5820,
      "componentType": 5125,
      "count": 6,
      "type": "SCALAR"
    },
    {
      "bufferView": 2,
      "byteOffset": 15048,
      "componentType": 5126,
      "count": 509,
      "max": [
        3.504999876022339,
        5.850000381469727,
        3.7250001430511475
      ],
      "min": [
        -2.504999876022339,
        0.0,
        -3.7250001430511475
      ],
      "type": "VEC3"
    },
    {
      "bufferView": 2,
      "byteOffset": 21156,
      "componentType": 5126,
      "count": 509,
      "max": [
        1.0,
        1.0,
        1.0
      ],
      "min": [
        -1.0,
        -1.0,
        -1.0
      ],
      "type": "VEC3"
    },
    {
      "bufferView": 1,
      "byteOffset": 15016,
      "componentType": 5126,
      "count": 509,
      "max": [
        0.9904015064239502,
        0.9107900857925415
      ],
      "min": [
        0.005976200103759766,
        0.17715394496917725
      ],
      "type": "VEC2"
    },
    {
      "bufferView": 1,
      "byteOffset": 19088,
      "componentType": 5126,
      "count": 509,
      "max": [
        1.0207784175872803,
        1.609999656677246
      ],
      "min": [
        -0.0014092972269281745,
        -0.6099996566772461
      ],
      "type": "VEC2"
    },
    {
      "bufferView": 0,
      "byteOffset": 5844,
      "componentType": 5125,
      "count": 1077,
      "type": "SCALAR"
    },
    {
      "bufferView": 2,
      "byteOffset": 27264,
      "componentType": 5126,
      "count": 32,
      "max": [
        2.4549999237060547,
        2.9399962425231934,
        3.6750001907348633
      ],
      "min": [
        -2.4549999237060547,
        1.0000001192092896,
        -3.492555618286133
      ],
      "type": "VEC3"
    },
    {
      "bufferView": 2,
      "byteOffset": 27648,
      "componentType": 5126,
      "count": 32,
      "max": [
        1.0,
        0.0,
        1.0
      ],
      "min": [
        -1.0,
        0.0,
        -0.0
      ],
      "type": "VEC3"
    },
    {
      "bufferView": 1,
      "byteOffset": 23160,
      "componentType": 5126,
      "count": 32,
      "max": [
        1.0,
        1.0
      ],
      "min": [
        0.0,
        0.0
      ],
      "type": "VEC2"
    },
    {
      "bufferView": 1,
      "byteOffset": 23416,
      "componentType": 5126,
      "count": 32,
      "max": [
        0.9781641960144043,
        0.6550084352493286
      ],
      "min": [
        0.17786931991577148,
        0.1905614137649536
      ],
      "type": "VEC2"
    },
    {
      "bufferView": 1,
      "byteOffset": 23672,
      "componentType": 5126,
      "count": 32,
      "max": [
        1.0,
        1.0
      ],
      "min": [
        0.0,
        0.0
      ],
      "type": "VEC2"
    },
    {
      "bufferView": 0,
      "byteOffset": 10152,
      "componentType": 5125,
      "count": 48,
      "type": "SCALAR"
    },
    {
      "bufferView": 2,
      "byteOffset": 28032,
      "componentType": 5126,
      "count": 498,
      "max": [
        3.8549997806549072,
        5.350000381469727,
        3.7250001430511475
      ],
      "min": [
        -2.497499942779541,
        0.0,
        -3.7250001430511475
      ],
      "type": "VEC3"
    },
    {
      "bufferView": 2,
      "byteOffset": 34008,
      "componentType": 5126,
      "count": 498,
      "max": [
        1.0,
        1.0,
        1.0
      ],
      "min": [
        -1.0,
        -1.0,
        -1.0
      ],
      "type": "VEC3"
    },
    {
      "bufferView": 1,
      "byteOffset": 23928,
      "componentType": 5126,
      "count": 498,
      "max": [
        1.384526014328003,
        1.2335275411605835
      ],
      "min": [
        -0.17443561553955078,
        -0.7116634845733643
      ],
      "type": "VEC2"
    },
    {
      "bufferView": 1,
      "byteOffset": 27912,
      "componentType": 5126,
      "count": 498,
      "max": [
        0.9806492328643799,
        0.9788538217544556
      ],
      "min": [
        0.005976200103759766,
        0.1775604486465454
      ],
      "type": "VEC2"
    },
    {
      "bufferView": 1,
      "byteOffset": 31896,
      "componentType": 5126,
      "count": 498,
      "max": [
        1.384526014328003,
        1.2335275411605835
      ],
      "min": [
        -0.17443561553955078,
        -0.7116634845733643
      ],
      "type": "VEC2"
    },
    {
      "bufferView": 0,
      "byteOffset": 10344,
      "componentType": 5125,
      "count": 1014,
      "type": "SCALAR"
    },
    {
      "bufferView": 2,
      "byteOffset": 39984,
      "componentType": 5126,
      "count": 95,
      "max": [
        1.150571584701538,
        2.92045521736145,
        3.7100000381469727
      ],
      "min": [
        -2.489999771118164,
        0.07049349695444107,
        -3.7100000381469727
      ],
      "type": "VEC3"
    },
    {
      "bufferView": 2,
      "byteOffset": 41124,
      "componentType": 5126,
      "count": 95,
      "max": [
        0.0,
        1.5975972473825095e-06,
        1.0
      ],
      "min": [
        -1.0,
        0.0,
        -1.0
      ],
      "type": "VEC3"
    },
    {
      "bufferView": 3,
      "componentType": 5126,
      "count": 95,
      "max": [
        0.6598349213600159,
        0.7514474391937256,
        0.000562843750230968,
        -1.0
      ],
      "min": [
        -0.08546891063451767,
        -1.0,
        -0.45077258348464966,
        -1.0
      ],
      "type": "VEC4"
    },
    {
      "bufferView": 1,
      "byteOffset": 35880,
      "componentType": 5126,
      "count": 95,
      "max": [
        0.9989150762557983,
        0.6690213680267334
      ],
      "min": [
        0.043180372565984726,
        0.29281115531921387
      ],
      "type": "VEC2"
    },
    {
      "bufferView": 1,
      "byteOffset": 36640,
      "componentType": 5126,
      "count": 95,
      "max": [
        0.9186863899230957,
        0.918299674987793
      ],
      "min": [
        0.26244497299194336,
        0.21919965744018555
      ],
      "type": "VEC2"
    },
    {
      "bufferView": 1,
      "byteOffset": 37400,
      "componentType": 5126,
      "count": 95,
      "max": [
        0.9989150762557983,
        0.6690213680267334
      ],
      "min": [
        0.043180372565984726,
        0.29281115531921387
      ],
      "type": "VEC2"
    },
    {
      "bufferView": 0,
      "byteOffset": 14400,
      "componentType": 5125,
      "count": 249,
      "type": "SCALAR"
    }
  ],
  "asset": {
    "extras": {
      "author": "Dynamike17 (https://sketchfab.com/Dynamike17)",
      "license": "CC-BY-4.0 (http://creativecommons.org/licenses/by/4.0/)",
      "source": "https://sketchfab.com/3d-models/small-house-578d3864a3a84cc5a23d5066dcc4e4c8",
      "title": "Small house"
    },
    "generator": "Sketchfab-16.12.0",
    "version": "2.0"
  },
  "bufferViews": [
    {
      "buffer": 0,
      "byteLength": 15396,
      "name": "floatBufferViews",
      "target": 34963
    },
    {
      "buffer": 0,
      "byteLength": 38160,
      "byteOffset": 15396,
      "byteStride": 8,
      "name": "floatBufferViews",
      "target": 34962
    },
    {
      "buffer": 0,
      "byteLength": 42264,
      "byteOffset": 53556,
      "byteStride": 12,
      "name": "floatBufferViews",
      "target": 34962
    },
    {
      "buffer": 0,
      "byteLength": 1520,
      "byteOffset": 95820,
      "byteStride": 16,
      "name": "floatBufferViews",
      "target": 34962
    }
  ],
  "buffers": [
    {
      "byteLength": 97340,
      "uri": "scene.bin"
    }
  ],
  "extensionsUsed": [
    "KHR_materials_specular"
  ],
  "images": [
    {
      "uri": "textures/blue_wall_baseColor.jpeg"
    },
    {
      "uri": "textures/door_baseColor.jpeg"
    },
    {
      "uri": "textures/shutter_baseColor.jpeg"
    },
    {
      "uri": "textures/metal_door_baseColor.jpeg"
    },
    {
      "uri": "textures/Material.001_baseColor.jpeg"
    },
    {
      "uri": "textures/cement_baseColor.jpeg"
    },
    {
      "uri": "textures/Material.003_baseColor.jpeg"
    },
    {
      "uri": "textures/Material.003_normal.jpeg"
    }
  ],
  "materials": [
    {
      "doubleSided": true,
      "extensions": {
        "KHR_materials_specular": {
          "specularColorFactor": [
            1.0,
            1.0,
            1.0
          ],
          "specularFactor": 0.0
        }
      },
      "name": "blue_wall",
      "pbrMetallicRoughness": {
        "baseColorTexture": {
          "index": 0
        },
        "metallicFactor": 0.0
      }
    },
    {
      "doubleSided": true,
      "name": "door",
      "pbrMetallicRoughness": {
        "baseColorTexture": {
          "index": 1
        },
        "metallicFactor": 0.0
      }
    },
    {
      "doubleSided": true,
      "extensions": {
        "KHR_materials_specular": {
          "specularColorFactor": [
            1.0,
            1.0,
            1.0
          ],
          "specularFactor": 0.0
        }
      },
      "name": "shutter",
      "pbrMetallicRoughness": {
        "baseColorTexture": {
          "index": 2
        },
        "metallicFactor": 0.0
      }
    },
    {
      "doubleSided": true,
      "extensions": {
        "KHR_materials_specular": {
          "specularColorFactor": [
            1.0,
            1.0,
            1.0
          ],
          "specularFactor": 0.0
        }
      },
      "name": "metal_door",
      "pbrMetallicRoughness": {
        "baseColorTexture": {
          "index": 3
        },
        "metallicFactor": 0.0
      }
    },
    {
      "doubleSided": true,
      "extensions": {
        "KHR_materials_specular": {
          "specularColorFactor": [
            1.0,
            1.0,
            1.0
          ],
          "specularFactor": 0.0
        }
      },
      "name": "window_frame",
      "pbrMetallicRoughness": {
        "metallicFactor": 0.0
      }
    },
    {
      "doubleSided": true,
      "extensions": {
        "KHR_materials_specular": {
          "specularColorFactor": [
            1.0,
            1.0,
            1.0
          ],
          "specularFactor": 0.0
        }
      },
      "name": "Material.001",
      "pbrMetallicRoughness": {
        "baseColorTexture": {
          "index": 4
        },
        "metallicFactor": 0.0
      }
    },
    {
      "doubleSided": true,
      "extensions": {
        "KHR_materials_specular": {
          "specularColorFactor": [
            1.0,
            1.0,
            1.0
          ],
          "specularFactor": 0.0
        }
      },
      "name": "cement",
      "pbrMetallicRoughness": {
        "baseColorTexture": {
          "index": 5
        },
        "metallicFactor": 0.0,
        "roughnessFactor": 0.7
      }
    },
    {
      "doubleSided": true,
      "extensions": {
        "KHR_materials_specular": {
          "specularColorFactor": [
            1.0,
            1.0,
            1.0
          ],
          "specularFactor": 0.0
        }
      },
      "name": "Material.003",
      "normalTexture": {
        "index": 7
      },
      "pbrMetallicRoughness": {
        "baseColorTexture": {
          "index": 6
        },
        "metallicFactor": 0.0
      }
    }
  ],
  "meshes": [
    {
      "name": "Object_0",
      "primitives": [
        {
          "attributes": {
            "NORMAL": 1,
            "POSITION": 0,
            "TEXCOORD_0": 2,
            "TEXCOORD_1": 3,
            "TEXCOORD_2": 4
          },
          "indices": 5,
          "material": 0,
          "mode": 4
        }
      ]
    },
    {
      "name": "Object_1",
      "primitives": [
        {
          "attributes": {
            "NORMAL": 7,
            "POSITION": 6,
            "TEXCOORD_0": 8,
            "TEXCOORD_1": 9,
            "TEXCOORD_2": 10
          },
          "indices": 11,
          "material": 1,
          "mode": 4
        }
      ]
    },
    {
      "name": "Object_2",
      "primitives": [
        {
          "attributes": {
            "NORMAL": 13,
            "POSITION": 12,
            "TEXCOORD_0": 14,
            "TEXCOORD_1": 15,
            "TEXCOORD_2": 16
          },
          "indices": 17,
          "material": 2,
          "mode": 4
        }
      ]
    },
    {
      "name": "Object_3",
      "primitives": [
        {
          "attributes": {
            "NORMAL": 19,
            "POSITION": 18,
            "TEXCOORD_0": 20,
            "TEXCOORD_1": 21
          },
          "indices": 22,
          "material": 3,
          "mode": 4
        }
      ]
    },
    {
      "name": "Object_4",
      "primitives": [
        {
          "attributes": {
            "NORMAL": 24,
            "POSITION": 23,
            "TEXCOORD_0": 25,
            "TEXCOORD_1": 26
          },
          "indices": 27,
          "material": 4,
          "mode": 4
        }
      ]
    },
    {
      "name": "Object_5",
      "primitives": [
        {
          "attributes": {
            "NORMAL": 29,
            "POSITION": 28,
            "TEXCOORD_0": 30,
            "TEXCOORD_1": 31,
            "TEXCOORD_2": 32
          },
          "indices": 33,
          "material": 5,
          "mode": 4
        }
      ]
    },
    {
      "name": "Object_6",
      "primitives": [
        {
          "attributes": {
            "NORMAL": 35,
            "POSITION": 34,
            "TEXCOORD_0": 36,
            "TEXCOORD_1": 37,
            "TEXCOORD_2": 38
          },
          "indices": 39,
          "material": 6,
          "mode": 4
        }
      ]
    },
    {
      "name": "Object_7",
      "primitives": [
        {
          "attributes": {
            "NORMAL": 41,
            "POSITION": 40,
            "TANGENT": 42,
            "TEXCOORD_0": 43,
            "TEXCOORD_1": 44,
            "TEXCOORD_2": 45
          },
          "indices": 46,
          "material": 7,
          "mode": 4
        }
      ]
    }
  ],
  "nodes": [
    {
      "children": [
        1
      ],
      "matrix": [
        1.0,
        0.0,
        0.0,
        0.0,
        0.0,
        2.220446049250313e-16,
        -1.0,
        0.0,
        0.0,
        1.0,
        2.220446049250313e-16,
        0.0,
        0.0,
        0.0,
        0.0,
        1.0
      ],
      "name": "Sketchfab_model"
    },
    {
      "children": [
        2
      ],
      "name": "root"
    },
    {
      "children": [
        3
      ],
      "matrix": [
        1.0,
        0.0,
        0.0,
        0.0,
        0.0,
        2.220446049250313e-16,
        1.0,
        0.0,
        0.0,
        -1.0,
        2.220446049250313e-16,
        0.0,
        0.0,
        0.0,
        0.0,
        1.0
      ],
      "name": "GLTF_SceneRootNode"
    },
    {
      "children": [
        4,
        5,
        6,
        7,
        8,
        9,
        10,
        11
      ],
      "name": "building_003_0"
    },
    {
      "mesh": 0,
      "name": "Object_4"
    },
    {
      "mesh": 1,
      "name": "Object_5"
    },
    {
      "mesh": 2,
      "name": "Object_6"
    },
    {
      "mesh": 3,
      "name": "Object_7"
    },
    {
      "mesh": 4,
      "name": "Object_8"
    },
    {
      "mesh": 5,
      "name": "Object_9"
    },
    {
      "mesh": 6,
      "name": "Object_10"
    },
    {
      "mesh": 7,
      "name": "Object_11"
    }
  ],
  "samplers": [
    {
      "magFilter": 9729,
      "minFilter": 9987,
      "wrapS": 10497,
      "wrapT": 10497
    }
  ],
  "scene": 0,
  "scenes": [
    {
      "name": "Sketchfab_Scene",
      "nodes": [
        0
      ]
    }
  ],
  "textures": [
    {
      "sampler": 0,
      "source": 0
    },
    {
      "sampler": 0,
      "source": 1
    },
    {
      "sampler": 0,
      "source": 2
    },
    {
      "sampler": 0,
      "source": 3
    },
    {
      "sampler": 0,
      "source": 4
    },
    {
      "sampler": 0,
      "source": 5
    },
    {
      "sampler": 0,
      "source": 6
    },
    {
      "sampler": 0,
      "source": 7
    }
  ]
}
