{
  "accessors": [
    {
      "bufferView": 2,
      "componentType": 5126,
      "count": 2303,
      "max": [
        19.415010452270508,
        378.6895751953125,
        38.32835388183594
      ],
      "min": [
        -29.812551498413086,
        -0.0013004372594878078,
        -61.246604919433594
      ],
      "type": "VEC3"
    },
    {
      "bufferView": 2,
      "byteOffset": 27636,
      "componentType": 5126,
      "count": 2303,
      "max": [
        1.0,
        1.0,
        1.0
      ],
      "min": [
        -1.0,
        -1.0,
        -1.0
      ],
      "type": "VEC3"
    },
    {
      "bufferView": 3,
      "componentType": 5126,
      "count": 2303,
      "max": [
        1.0,
        0.9501726627349854,
        1.0,
        1.0
      ],
      "min": [
        -1.0,
        -0.9944779872894287,
        -1.0,
        -1.0
      ],
      "type": "VEC4"
    },
    {
      "bufferView": 1,
      "componentType": 5126,
      "count": 2303,
      "max": [
        0.9959530830383301,
        0.9993939995765686
      ],
      "min": [
        0.0020000040531158447,
        0.0020000000949949026
      ],
      "type": "VEC2"
    },
    {
      "bufferView": 0,
      "componentType": 5125,
      "count": 8808,
      "type": "SCALAR"
    },
    {
      "bufferView": 2,
      "byteOffset": 55272,
      "componentType": 5126,
      "count": 2303,
      "max": [
        19.415010452270508,
        378.6895751953125,
        38.32835388183594
      ],
      "min": [
        -29.812551498413086,
        -0.0013004372594878078,
        -61.246604919433594
      ],
      "type": "VEC3"
    },
    {
      "bufferView": 2,
      "byteOffset": 82908,
      "componentType": 5126,
      "count": 2303,
      "max": [
        1.0,
        1.0,
        1.0
      ],
      "min": [
        -1.0,
        -1.0,
        -1.0
      ],
      "type": "VEC3"
    },
    {
      "bufferView": 3,
      "byteOffset": 36848,
      "componentType": 5126,
      "count": 2303,
      "max": [
        1.0,
        0.9501726627349854,
        1.0,
        1.0
      ],
      "min": [
        -1.0,
        -0.9944779872894287,
        -1.0,
        -1.0
      ],
      "type": "VEC4"
    },
    {
      "bufferView": 1,
      "byteOffset": 18424,
      "componentType": 5126,
      "count": 2303,
      "max": [
        0.9959530830383301,
        0.9993939995765686
      ],
      "min": [
        0.0020000040531158447,
        0.0020000000949949026
      ],
      "type": "VEC2"
    },
    {
      "bufferView": 0,
      "byteOffset": 35232,
      "componentType": 5125,
      "count": 8808,
      "type": "SCALAR"
    },
    {
      "bufferView": 2,
      "byteOffset": 110544,
      "componentType": 5126,
      "count": 2303,
      "max": [
        19.415010452270508,
        378.6895751953125,
        38.32835388183594
      ],
      "min": [
        -29.812551498413086,
        -0.0013004372594878078,
        -61.246604919433594
      ],
      "type": "VEC3"
    },
    {
      "bufferView": 2,
      "byteOffset": 138180,
      "componentType": 5126,
      "count": 2303,
      "max": [
        1.0,
        1.0,
        1.0
      ],
      "min": [
        -1.0,
        -1.0,
        -1.0
      ],
      "type": "VEC3"
    },
    {
      "bufferView": 3,
      "byteOffset": 73696,
      "componentType": 5126,
      "count": 2303,
      "max": [
        1.0,
        0.9501726627349854,
        1.0,
        1.0
      ],
      "min": [
        -1.0,
        -0.9944779872894287,
        -1.0,
        -1.0
      ],
      "type": "VEC4"
    },
    {
      "bufferView": 1,
      "byteOffset": 36848,
      "componentType": 5126,
      "count": 2303,
      "max": [
        0.9959530830383301,
        0.9993939995765686
      ],
      "min": [
        0.0020000040531158447,
        0.0020000000949949026
      ],
      "type": "VEC2"
    },
    {
      "bufferView": 0,
      "byteOffset": 70464,
      "componentType": 5125,
      "count": 8808,
      "type": "SCALAR"
    },
    {
      "bufferView": 2,
      "byteOffset": 165816,
      "componentType": 5126,
      "count": 2303,
      "max": [
        19.415010452270508,
        378.6895751953125,
        38.32835388183594
      ],
      "min": [
        -29.812551498413086,
        -0.0013004372594878078,
        -61.246604919433594
      ],
      "type": "VEC3"
    },
    {
      "bufferView": 2,
      "byteOffset": 193452,
      "componentType": 5126,
      "count": 2303,
      "max": [
        1.0,
        1.0,
        1.0
      ],
      "min": [
        -1.0,
        -1.0,
        -1.0
      ],
      "type": "VEC3"
    },
    {
      "bufferView": 3,
      "byteOffset": 110544,
      "componentType": 5126,
      "count": 2303,
      "max": [
        1.0,
        0.9501726627349854,
        1.0,
        1.0
      ],
      "min": [
        -1.0,
        -0.9944779872894287,
        -1.0,
        -1.0
      ],
      "type": "VEC4"
    },
    {
      "bufferView": 1,
      "byteOffset": 55272,
      "componentType": 5126,
      "count": 2303,
      "max": [
        0.9959530830383301,
        0.9993939995765686
      ],
      "min": [
        0.0020000040531158447,
        0.0020000000949949026
      ],
      "type": "VEC2"
    },
    {
      "bufferView": 0,
      "byteOffset": 105696,
      "componentType": 5125,
      "count": 8808,
      "type": "SCALAR"
    },
    {
      "bufferView": 4,
      "componentType": 5126,
      "count": 4,
      "max": [
        5.000010013580322
      ],
      "min": [
        0.03999999910593033
      ],
      "type": "SCALAR"
    },
    {
      "bufferView": 5,
      "componentType": 5126,
      "count": 4,
      "max": [
        1.0,
        1.0,
        1.0
      ],
      "min": [
        1.000000013351432e-10,
        1.000000013351432e-10,
        1.000000013351432e-10
      ],
      "type": "VEC3"
    },
    {
      "bufferView": 4,
      "byteOffset": 16,
      "componentType": 5126,
      "count": 5,
      "max": [
        8.0
      ],
      "min": [
        0.03999999910593033
      ],
      "type": "SCALAR"
    },
    {
      "bufferView": 5,
      "byteOffset": 48,
      "componentType": 5126,
      "count": 5,
      "max": [
        1.0,
        1.0,
        1.0
      ],
      "min": [
        1.000000013351432e-10,
        1.000000013351432e-10,
        1.000000013351432e-10
      ],
      "type": "VEC3"
    },
    {
      "bufferView": 4,
      "byteOffset": 36,
      "componentType": 5126,
      "count": 5,
      "max": [
        13.000009536743164
      ],
      "min": [
        0.03999999910593033
      ],
      "type": "SCALAR"
    },
    {
      "bufferView": 5,
      "byteOffset": 108,
      "componentType": 5126,
      "count": 5,
      "max": [
        1.0,
        1.0,
        1.0
      ],
      "min": [
        1.000000013351432e-10,
        1.000000013351432e-10,
        1.000000013351432e-10
      ],
      "type": "VEC3"
    },
    {
      "bufferView": 4,
      "byteOffset": 56,
      "componentType": 5126,
      "count": 3,
      "max": [
        13.000009536743164
      ],
      "min": [
        0.03999999910593033
      ],
      "type": "SCALAR"
    },
    {
      "bufferView": 5,
      "byteOffset": 168,
      "componentType": 5126,
      "count": 3,
      "max": [
        1.0,
        1.0,
        1.0
      ],
      "min": [
        1.000000013351432e-10,
        1.000000013351432e-10,
        1.000000013351432e-10
      ],
      "type": "VEC3"
    }
  ],
  "animations": [
    {
      "channels": [
        {
          "sampler": 0,
          "target": {
            "node": 4,
            "path": "scale"
          }
        },
        {
          "sampler": 1,
          "target": {
            "node": 6,
            "path": "scale"
          }
        },
        {
          "sampler": 2,
          "target": {
            "node": 8,
            "path": "scale"
          }
        },
        {
          "sampler": 3,
          "target": {
            "node": 10,
            "path": "scale"
          }
        }
      ],
      "name": "Take 001",
      "samplers": [
        {
          "input": 20,
          "interpolation": "LINEAR",
          "output": 21
        },
        {
          "input": 22,
          "interpolation": "LINEAR",
          "output": 23
        },
        {
          "input": 24,
          "interpolation": "LINEAR",
          "output": 25
        },
        {
          "input": 26,
          "interpolation": "LINEAR",
          "output": 27
        }
      ]
    }
  ],
  "asset": {
    "extras": {
      "author": "BaptisteBerard (https://sketchfab.com/BaptisteBerard)",
      "license": "CC-BY-4.0 (http://creativecommons.org/licenses/by/4.0/)",
      "source": "https://sketchfab.com/3d-models/traffic-light-animated-25734349111e4d01a64f9805c4fab0d8",
      "title": "Traffic Light Animated"
    },
    "generator": "Sketchfab-12.68.0",
    "version": "2.0"
  },
  "bufferViews": [
    {
      "buffer": 0,
      "byteLength": 140928,
      "name": "floatBufferViews",
      "target": 34963
    },
    {
      "buffer": 0,
      "byteLength": 73696,
      "byteOffset": 140928,
      "byteStride": 8,
      "name": "floatBufferViews",
      "target": 34962
    },
    {
      "buffer": 0,
      "byteLength": 221088,
      "byteOffset": 214624,
      "byteStride": 12,
      "name": "floatBufferViews",
      "target": 34962
    },
    {
      "buffer": 0,
      "byteLength": 147392,
      "byteOffset": 435712,
      "byteStride": 16,
      "name": "floatBufferViews",
      "target": 34962
    },
    {
      "buffer": 0,
      "byteLength": 68,
      "byteOffset": 583104,
      "name": "floatBufferViews"
    },
    {
      "buffer": 0,
      "byteLength": 204,
      "byteOffset": 583172,
      "byteStride": 12,
      "name": "floatBufferViews"
    }
  ],
  "buffers": [
    {
      "byteLength": 583376,
      "uri": "scene.bin"
    }
  ],
  "images": [
    {
      "uri": "textures/traffic_light_shader_green_baseColor.png"
    },
    {
      "uri": "textures/traffic_light_shader_green_emissive.jpeg"
    },
    {
      "uri": "textures/traffic_light_shader_green_normal.png"
    },
    {
      "uri": "textures/traffic_light_shader_orange_emissive.jpeg"
    },
    {
      "uri": "textures/traffic_light_shader_red_emissive.jpeg"
    },
    {
      "uri": "textures/traffic_light_shader_red_red_emissive.jpeg"
    }
  ],
  "materials": [
    {
      "doubleSided": true,
      "emissiveFactor": [
        1.0,
        1.0,
        1.0
      ],
      "emissiveTexture": {
        "index": 1
      },
      "name": "traffic_light_shader_green",
      "normalTexture": {
        "index": 2
      },
      "pbrMetallicRoughness": {
        "baseColorTexture": {
          "index": 0
        },
        "metallicFactor": 0.0,
        "roughnessFactor": 0.4
      }
    },
    {
      "doubleSided": true,
      "emissiveFactor": [
        1.0,
        1.0,
        1.0
      ],
      "emissiveTexture": {
        "index": 3
      },
      "name": "traffic_light_shader_orange",
      "normalTexture": {
        "index": 2
      },
      "pbrMetallicRoughness": {
        "baseColorTexture": {
          "index": 0
        },
        "metallicFactor": 0.0,
        "roughnessFactor": 0.4
      }
    },
    {
      "doubleSided": true,
      "emissiveFactor": [
        1.0,
        1.0,
        1.0
      ],
      "emissiveTexture": {
        "index": 4
      },
      "name": "traffic_light_shader_red",
      "normalTexture": {
        "index": 2
      },
      "pbrMetallicRoughness": {
        "baseColorTexture": {
          "index": 0
        },
        "metallicFactor": 0.0,
        "roughnessFactor": 0.4
      }
    },
    {
      "doubleSided": true,
      "emissiveFactor": [
        1.0,
        1.0,
        1.0
      ],
      "emissiveTexture": {
        "index": 5
      },
      "name": "traffic_light_shader_red_red",
      "normalTexture": {
        "index": 2
      },
      "pbrMetallicRoughness": {
        "baseColorTexture": {
          "index": 0
        },
        "metallicFactor": 0.0,
        "roughnessFactor": 0.4
      }
    }
  ],
  "meshes": [
    {
      "name": "Traffic_Light_green_traffic_light_shader_green_0",
      "primitives": [
        {
          "attributes": {
            "NORMAL": 1,
            "POSITION": 0,
            "TANGENT": 2,
            "TEXCOORD_0": 3
          },
          "indices": 4,
          "material": 0,
          "mode": 4
        }
      ]
    },
    {
      "name": "Traffic_Light_orange_traffic_light_shader_orange_0",
      "primitives": [
        {
          "attributes": {
            "NORMAL": 6,
            "POSITION": 5,
            "TANGENT": 7,
            "TEXCOORD_0": 8
          },
          "indices": 9,
          "material": 1,
          "mode": 4
        }
      ]
    },
    {
      "name": "Traffic_Light_red_traffic_light_shader_red_0",
      "primitives": [
        {
          "attributes": {
            "NORMAL": 11,
            "POSITION": 10,
            "TANGENT": 12,
            "TEXCOORD_0": 13
          },
          "indices": 14,
          "material": 2,
          "mode": 4
        }
      ]
    },
    {
      "name": "Traffic_Light_red_red_traffic_light_shader_red_red_0",
      "primitives": [
        {
          "attributes": {
            "NORMAL": 16,
            "POSITION": 15,
            "TANGENT": 17,
            "TEXCOORD_0": 18
          },
          "indices": 19,
          "material": 3,
          "mode": 4
        }
      ]
    }
  ],
  "nodes": [
    {
      "children": [
        1
      ],
      "matrix": [
        1.0,
        0.0,
        0.0,
        0.0,
        0.0,
        2.220446049250313e-16,
        -1.0,
        0.0,
        0.0,
        1.0,
        2.220446049250313e-16,
        0.0,
        0.0,
        0.0,
        0.0,
        1.0
      ],
      "name": "Sketchfab_model"
    },
    {
      "children": [
        2
      ],
      "matrix": [
        1.0,
        0.0,
        0.0,
        0.0,
        0.0,
        0.0,
        1.0,
        0.0,
        0.0,
        -1.0,
        0.0,
        0.0,
        0.0,
        0.0,
        0.0,
        1.0
      ],
      "name": "d947eecda9ee42e5b000732949b35764.fbx"
    },
    {
      "children": [
        3
      ],
      "name": "Object_2"
    },
    {
      "children": [
        4,
        6,
        8,
        10
      ],
      "name": "RootNode"
    },
    {
      "children": [
        5
      ],
      "name": "Traffic_Light_green"
    },
    {
      "mesh": 0,
      "name": "Traffic_Light_green_traffic_light_shader_green_0"
    },
    {
      "children": [
        7
      ],
      "name": "Traffic_Light_orange"
    },
    {
      "mesh": 1,
      "name": "Traffic_Light_orange_traffic_light_shader_orange_0"
    },
    {
      "children": [
        9
      ],
      "name": "Traffic_Light_red"
    },
    {
      "mesh": 2,
      "name": "Traffic_Light_red_traffic_light_shader_red_0"
    },
    {
      "children": [
        11
      ],
      "name": "Traffic_Light_red_red"
    },
    {
      "mesh": 3,
      "name": "Traffic_Light_red_red_traffic_light_shader_red_red_0"
    }
  ],
  "samplers": [
    {
      "magFilter": 9729,
      "minFilter": 9987,
      "wrapS": 10497,
      "wrapT": 10497
    }
  ],
  "scene": 0,
  "scenes": [
    {
      "name": "Sketchfab_Scene",
      "nodes": [
        0
      ]
    }
  ],
  "textures": [
    {
      "sampler": 0,
      "source": 0
    },
    {
      "sampler": 0,
      "source": 1
    },
    {
      "sampler": 0,
      "source": 2
    },
    {
      "sampler": 0,
      "source": 3
    },
    {
      "sampler": 0,
      "source": 4
    },
    {
      "sampler": 0,
      "source": 5
    }
  ]
}
